<svg width="34" height="34" viewBox="0 0 34 34" fill="none" xmlns="http://www.w3.org/2000/svg">
    <path d="M27.8611 6.61111H9.91667C9.54094 6.61111 9.18061 6.76037 8.91493 7.02605C8.64926 7.29172 8.5 7.65206 8.5 8.02778V30.6945C8.5 31.0702 8.64926 31.4305 8.91493 31.6962C9.18061 31.9619 9.54094 32.1111 9.91667 32.1111H27.8611C28.2368 32.1111 28.5972 31.9619 28.8628 31.6962C29.1285 31.4305 29.2778 31.0702 29.2778 30.6945V8.02778C29.2778 7.65206 29.1285 7.29172 28.8628 7.02605C28.5972 6.76037 28.2368 6.61111 27.8611 6.61111ZM27.3889 30.2222H10.3889V8.5H27.3889V30.2222Z" fill="#4594F7"/>
    <path d="M24.5556 3.30555C24.5556 2.92983 24.4064 2.56949 24.1407 2.30382C23.875 2.03814 23.5147 1.88889 23.1389 1.88889H5.1945C4.81878 1.88889 4.45844 2.03814 4.19276 2.30382C3.92709 2.56949 3.77783 2.92983 3.77783 3.30555V25.9722C3.77783 26.3479 3.92709 26.7083 4.19276 26.974C4.45844 27.2396 4.81878 27.3889 5.1945 27.3889H5.66672V3.77777H24.5556V3.30555Z" fill="#4594F7"/>
</svg>
