<svg width="66" height="66" viewBox="0 0 66 66" fill="none" xmlns="http://www.w3.org/2000/svg">
    <circle cx="33" cy="33" r="32.5" stroke="#4594F7" />
    <path
        d="M44.3141 27.343C45.0643 26.5928 45.4858 25.5754 45.4858 24.5145C45.4858 23.4536 45.0643 22.4362 44.3141 21.686C43.564 20.9358 42.5465 20.5144 41.4857 20.5144C40.4248 20.5144 39.4073 20.9358 38.6572 21.686L37.2542 23.09L42.9102 28.746L44.3141 27.343Z"
        fill="#4594F7" />
    <path
        d="M41.496 30.16L29.541 42.117C28.9002 42.7577 28.0972 43.2123 27.218 43.432L22.636 44.578C22.4684 44.62 22.2928 44.6178 22.1263 44.5717C21.9598 44.5257 21.8081 44.4372 21.686 44.3151C21.5638 44.1929 21.4754 44.0412 21.4293 43.8747C21.3832 43.7082 21.3811 43.5326 21.423 43.365L22.569 38.783C22.7887 37.9038 23.2433 37.1009 23.884 36.46L35.839 24.504L41.496 30.161V30.16Z"
        fill="#4594F7" />
</svg>