<svg width="20" height="20" viewBox="0 0 20 20" fill="none" xmlns="http://www.w3.org/2000/svg">
    <path d="M10.8127 5.18834C11.7007 5.18834 12.4727 5.35634 13.1287 5.69234C13.7847 6.02834 14.2887 6.50034 14.6407 7.10834C14.9927 7.70834 15.1687 8.40434 15.1687 9.19634C15.1687 9.82834 15.0647 10.4363 14.8567 11.0203C14.6487 11.5963 14.3447 12.0643 13.9447 12.4243C13.5527 12.7843 13.0927 12.9643 12.5647 12.9643C12.1647 12.9643 11.8567 12.8643 11.6407 12.6643C11.4247 12.4643 11.3007 12.1923 11.2687 11.8483C11.0207 12.1923 10.7047 12.4643 10.3207 12.6643C9.94467 12.8643 9.54467 12.9643 9.12067 12.9643C8.51267 12.9643 8.03267 12.7803 7.68067 12.4123C7.33667 12.0363 7.16467 11.5323 7.16467 10.9003C7.16467 10.3003 7.28867 9.74034 7.53667 9.22034C7.79267 8.70034 8.14467 8.28434 8.59267 7.97234C9.04067 7.65234 9.54867 7.49234 10.1167 7.49234C10.8767 7.49234 11.3887 7.78034 11.6527 8.35634L11.7847 7.61234H12.7327L12.1327 11.0803C12.1087 11.2323 12.0967 11.3723 12.0967 11.5003C12.0967 11.9803 12.3087 12.2203 12.7327 12.2203C13.0527 12.2203 13.3287 12.0683 13.5607 11.7643C13.8007 11.4603 13.9807 11.0803 14.1007 10.6243C14.2207 10.1603 14.2807 9.70434 14.2807 9.25634C14.2807 8.20834 13.9647 7.39634 13.3327 6.82034C12.7087 6.24434 11.8247 5.95634 10.6807 5.95634C9.72867 5.95634 8.86867 6.18834 8.10067 6.65234C7.34067 7.10834 6.74467 7.73634 6.31267 8.53634C5.88067 9.33634 5.66467 10.2203 5.66467 11.1883C5.65667 12.2443 5.97267 13.0563 6.61267 13.6243C7.25267 14.2003 8.14067 14.4883 9.27667 14.4883C10.0287 14.4883 10.6927 14.3523 11.2687 14.0803L11.4127 14.8243C10.7007 15.1203 9.91667 15.2683 9.06067 15.2683C8.20467 15.2683 7.44867 15.1043 6.79267 14.7763C6.14467 14.4563 5.64067 13.9923 5.28067 13.3843C4.92867 12.7843 4.75267 12.0843 4.75267 11.2843C4.75267 10.1563 5.01267 9.12834 5.53267 8.20034C6.05267 7.26434 6.77267 6.52834 7.69267 5.99234C8.62067 5.45634 9.66067 5.18834 10.8127 5.18834ZM9.44467 12.1123C9.80467 12.1123 10.1367 12.0083 10.4407 11.8003C10.7447 11.5843 10.9847 11.2963 11.1607 10.9363C11.3367 10.5683 11.4247 10.1683 11.4247 9.73634C11.4247 9.32034 11.3087 8.98434 11.0767 8.72834C10.8527 8.46434 10.5327 8.33234 10.1167 8.33234C9.73267 8.33234 9.39267 8.44834 9.09667 8.68034C8.80867 8.90434 8.58467 9.20434 8.42467 9.58034C8.26467 9.94834 8.18467 10.3323 8.18467 10.7323C8.18467 11.1563 8.29267 11.4923 8.50867 11.7403C8.72467 11.9883 9.03667 12.1123 9.44467 12.1123Z" fill="#4594F7"/>
    <circle cx="10" cy="10" r="9.5" stroke="#4594F7"/>
</svg>
