<svg width="20" height="20" viewBox="0 0 20 20" fill="none" xmlns="http://www.w3.org/2000/svg">
    <path d="M20 9.99995C20 8.0222 19.4135 6.08885 18.3148 4.44439C17.216 2.79993 15.6543 1.51821 13.8271 0.76131C11.9999 0.00440562 9.98928 -0.193691 8.0495 0.19207C6.10972 0.577831 4.32789 1.53012 2.92932 2.92853C1.53076 4.32694 0.578262 6.10866 0.192286 8.04838C-0.193691 9.98811 0.00418587 11.9987 0.760893 13.826C1.5176 15.6533 2.79915 17.2151 4.4435 18.3141C6.08785 19.413 8.02114 19.9997 9.9989 19.9999L10 20L10.0011 19.9999C12.6522 19.9966 15.1937 18.942 17.0682 17.0673C18.9426 15.1926 19.997 12.651 20 9.99995ZM10.4 19.1907V11.9999H13.2C13.3061 11.9999 13.4078 11.9578 13.4828 11.8828C13.5579 11.8078 13.6 11.706 13.6 11.5999C13.6 11.4939 13.5579 11.3921 13.4828 11.3171C13.4078 11.2421 13.3061 11.1999 13.2 11.1999H10.4V8.39996C10.4006 7.86971 10.6115 7.36134 10.9864 6.9864C11.3614 6.61145 11.8697 6.40055 12.4 6.39997H14C14.1061 6.39997 14.2078 6.35783 14.2828 6.28281C14.3579 6.2078 14.4 6.10606 14.4 5.99997C14.4 5.89389 14.3579 5.79215 14.2828 5.71713C14.2078 5.64212 14.1061 5.59998 14 5.59998H12.4C11.6576 5.6008 10.9459 5.89606 10.421 6.42098C9.89608 6.9459 9.60082 7.65761 9.6 8.39996V11.1999H6.8C6.69392 11.1999 6.59217 11.2421 6.51716 11.3171C6.44215 11.3921 6.4 11.4939 6.4 11.5999C6.4 11.706 6.44215 11.8078 6.51716 11.8828C6.59217 11.9578 6.69392 11.9999 6.8 11.9999H9.6V19.1906C7.19693 19.086 4.93038 18.0445 3.28592 16.2891C1.64146 14.5337 0.749877 12.2041 0.802179 9.7993C0.854482 7.39454 1.84651 5.10589 3.56574 3.42366C5.28497 1.74142 7.59466 0.7994 10 0.7994C12.4053 0.7994 14.715 1.74142 16.4343 3.42366C18.1535 5.10589 19.1455 7.39454 19.1978 9.7993C19.2501 12.2041 18.3585 14.5337 16.7141 16.2891C15.0696 18.0445 12.8031 19.086 10.4 19.1906V19.1907Z" fill="#4594F7"/>
</svg>
