<svg width="30" height="30" viewBox="0 0 30 30" fill="none" xmlns="http://www.w3.org/2000/svg">
    <circle cx="15" cy="15" r="15" fill="#C50D0D" />
    <path
        d="M16.052 10.27L15.87 17.06H14.54L14.358 10.27H16.052ZM15.254 20.098C14.9647 20.098 14.722 20 14.526 19.804C14.33 19.608 14.232 19.3653 14.232 19.076C14.232 18.7867 14.33 18.544 14.526 18.348C14.722 18.152 14.9647 18.054 15.254 18.054C15.534 18.054 15.772 18.152 15.968 18.348C16.164 18.544 16.262 18.7867 16.262 19.076C16.262 19.3653 16.164 19.608 15.968 19.804C15.772 20 15.534 20.098 15.254 20.098Z"
        fill="white" />
</svg>