<svg width="34" height="23" viewBox="0 0 34 23" fill="none" xmlns="http://www.w3.org/2000/svg">
<path d="M0 2.29657C0 1.68748 0.173839 1.10334 0.483274 0.672651C0.792709 0.24196 1.21239 0 1.65 0H31.35C31.7876 0 32.2073 0.24196 32.5167 0.672651C32.8262 1.10334 33 1.68748 33 2.29657C33 2.90566 32.8262 3.4898 32.5167 3.9205C32.2073 4.35119 31.7876 4.59315 31.35 4.59315H1.65C1.21239 4.59315 0.792709 4.35119 0.483274 3.9205C0.173839 3.4898 0 2.90566 0 2.29657Z" fill="#373F51"/>
<path d="M0 11.4826C0 10.8735 0.173839 10.2894 0.483274 9.85868C0.792709 9.42799 1.21239 9.18604 1.65 9.18604H31.35C31.7876 9.18604 32.2073 9.42799 32.5167 9.85868C32.8262 10.2894 33 10.8735 33 11.4826C33 12.0917 32.8262 12.6758 32.5167 13.1065C32.2073 13.5372 31.7876 13.7792 31.35 13.7792H1.65C1.21239 13.7792 0.792709 13.5372 0.483274 13.1065C0.173839 12.6758 0 12.0917 0 11.4826Z" fill="#373F51"/>
<path d="M11.65 18.3726C11.2124 18.3726 10.7927 18.6145 10.4833 19.0452C10.1738 19.4759 10 20.0601 10 20.6691C10 21.2782 10.1738 21.8624 10.4833 22.2931C10.7927 22.7237 11.2124 22.9657 11.65 22.9657H31.45C31.8876 22.9657 32.3073 22.7237 32.6167 22.2931C32.9262 21.8624 33.1 21.2782 33.1 20.6691C33.1 20.0601 32.9262 19.4759 32.6167 19.0452C32.3073 18.6145 31.8876 18.3726 31.45 18.3726H11.65Z" fill="#373F51"/>
</svg>
