<svg width="20" height="20" viewBox="0 0 20 20" fill="none" xmlns="http://www.w3.org/2000/svg">
    <path d="M12.4914 10.3516L15.9088 7.43599V13.234L12.4914 10.3516ZM8.08789 10.8454L9.28794 11.8683C9.47629 12.0255 9.72185 12.1204 9.9902 12.1204H9.99964H9.99908H10.0069C10.2758 12.1204 10.5213 12.0249 10.7119 11.8667L10.7102 11.8678L11.9103 10.8448L15.5582 13.9214H4.44163L8.08789 10.8454ZM4.43663 6.74473H15.5649L10.2196 11.3037C10.1596 11.3503 10.0852 11.3757 10.0085 11.3757H10.0008H10.0013H9.99353C9.91663 11.3758 9.84199 11.3502 9.78185 11.3031L9.78241 11.3037L4.43663 6.74473ZM4.09162 7.43544L7.50843 10.3511L4.09162 13.2318V7.43544ZM16.0921 6.10366C15.9588 6.03819 15.8021 6 15.636 6H4.36607C4.20504 6.00004 4.04623 6.03683 3.90216 6.10748L3.90828 6.10475C3.73581 6.18829 3.59057 6.31752 3.48896 6.47785C3.38734 6.63818 3.33341 6.82322 3.33325 7.01207V13.653C3.33355 13.9217 3.4424 14.1794 3.63592 14.3694C3.82944 14.5595 4.09183 14.6664 4.36552 14.6667H15.6343C15.908 14.6664 16.1704 14.5595 16.3639 14.3694C16.5574 14.1794 16.6663 13.9217 16.6666 13.653V7.01425V7.01207C16.6666 6.61542 16.4338 6.2717 16.0949 6.10639L16.0888 6.10366H16.0921Z" fill="#4594F7"/>
    <circle cx="10" cy="10" r="9.5" stroke="#4594F7"/>
</svg>
