<svg width="16" height="16" viewBox="0 0 16 16" fill="none" xmlns="http://www.w3.org/2000/svg">
    <path d="M14.2733 7.72L8.27325 1.72C8.03325 1.48 7.69992 1.33333 7.33325 1.33333H2.66659C1.93325 1.33333 1.33325 1.93333 1.33325 2.66667V7.33333C1.33325 7.7 1.47992 8.03333 1.72659 8.28L7.72659 14.28C7.96659 14.52 8.29992 14.6667 8.66659 14.6667C9.03325 14.6667 9.36659 14.52 9.60659 14.2733L14.2733 9.60667C14.5199 9.36667 14.6666 9.03333 14.6666 8.66667C14.6666 8.3 14.5133 7.96 14.2733 7.72ZM3.66659 4.66667C3.11325 4.66667 2.66659 4.22 2.66659 3.66667C2.66659 3.11333 3.11325 2.66667 3.66659 2.66667C4.21992 2.66667 4.66659 3.11333 4.66659 3.66667C4.66659 4.22 4.21992 4.66667 3.66659 4.66667Z" fill="#4594F7"/>
</svg>
