<svg xmlns="http://www.w3.org/2000/svg" width="72" height="104" viewBox="0 0 72 104">
    <path d="M51.0236 65.9147C51.0236 65.9147 67.4929 59.4448 67.4929 42.0407C67.4929 24.6368 49.1811 19.1557 49.1811 19.1557V0H36.7086V18.308H24.5764V0H12.1039V18.308H0V30.7395H12.0756V104H24.7182V67.1013L36.8504 67.3273L55.9559 89.3931L72 89.2801L51.0236 65.9147ZM24.5764 54.9524V30.4286H44.9858C44.9858 30.4286 54.5953 32.0391 55.4739 42.182C56.0975 49.4149 49.2944 54.9524 45.6661 54.9524C41.2441 54.9524 24.5764 54.9524 24.5764 54.9524Z" fill="url(#paint111_linear)"/>
    <defs>
        <linearGradient id="paint111_linear" x1="23.7222" y1="0.940918" x2="23.7222" y2="65.6468" gradientUnits="userSpaceOnUse">
            <stop stop-color="#007AFF"/>
            <stop offset="1" stop-color="#3F51B5"/>
        </linearGradient>
    </defs>
</svg>