<svg xmlns="http://www.w3.org/2000/svg" width="204" height="66" viewBox="0 0 204 66">
    <path d="M69.9267 34.8917H62.5756V42.4235H57.6812V16.849C61.7757 16.849 65.8512 16.8115 69.9457 16.8115C82.6293 16.8115 82.6674 34.8917 69.9267 34.8917ZM62.5756 30.47H69.9267C76.2113 30.47 76.1732 21.4018 69.9267 21.4018H62.5756V30.47Z" fill="#373F51"/>
    <path d="M33.2501 41.9514C33.2501 41.9514 43.6949 37.926 43.6949 27.0977C43.6949 16.2695 32.0816 12.8593 32.0816 12.8593V0.941162H24.1716V12.3319H16.4774V0.941162H8.56739V12.3319H0.891113V20.0664H8.54941V65.647H16.5673V42.6897L24.2615 42.8303L36.3782 56.559L46.5533 56.4887L33.2501 41.9514ZM16.4774 35.131V19.873H29.421C29.421 19.873 35.5153 20.875 36.0725 27.1856C36.468 31.6857 32.1535 35.131 29.8524 35.131C27.048 35.131 16.4774 35.131 16.4774 35.131Z" fill="url(#paint0_linear)"/>
    <path d="M96.1886 24.4178H100.531V42.4231H96.2647L96.0362 39.8C94.9888 41.9172 92.1321 42.9477 90.0944 42.9851C84.6668 43.0226 80.6675 39.7251 80.6675 33.4111C80.6675 27.1907 84.8572 23.9494 90.2087 23.9869C92.6654 23.9869 95.0078 25.1111 96.0362 26.9097L96.1886 24.4178ZM85.2 33.3923C85.2 36.821 87.6186 38.882 90.6276 38.882C97.7502 38.882 97.7502 27.9589 90.6276 27.9589C87.6186 27.9589 85.2 29.9637 85.2 33.3923Z" fill="#373F51"/>
    <path d="M122.027 24.4177L110.849 49.9548H105.878L109.287 42.1419L101.974 24.4177H107.249L110.03 32.1931L111.782 37.2706L113.667 32.3056L117 24.4177H122.027Z" fill="#373F51"/>
    <path d="M147.818 42.4235H141.99L134.411 33.88H129.688V42.4235H124.793V16.8115C128.907 16.8115 133.04 16.849 137.153 16.849C143.285 16.8865 146.504 20.896 146.504 25.3176C146.504 28.8213 144.866 32.3623 139.934 33.3554L147.799 42.0863V42.4235H147.818ZM129.688 21.3456V29.5332H137.153C140.276 29.5332 141.61 27.491 141.61 25.4488C141.61 23.4066 140.238 21.3644 137.153 21.3644H129.688V21.3456Z" fill="#373F51"/>
    <path d="M154.121 24.4177V33.8419C154.121 36.5774 155.644 38.657 158.539 38.657C161.32 38.657 163.224 36.3525 163.224 33.6171V24.4177H167.719V42.4604H163.662L163.357 40.006C161.472 41.8422 159.72 42.704 157.149 42.704C152.769 42.704 149.569 39.444 149.569 33.8606V24.4177H154.121Z" fill="#373F51"/>
    <path d="M175.582 35.0036C175.887 37.2332 177.848 38.8445 181.048 38.8445C182.723 38.8445 184.914 38.2262 185.942 37.1583L188.837 39.9687C186.913 41.9359 183.752 42.8915 180.971 42.8915C174.649 42.8915 170.916 39.0506 170.916 33.2799C170.916 27.7903 174.706 23.8557 180.648 23.8557C186.78 23.8557 190.608 27.5842 189.903 35.0036H175.582ZM185.542 31.3126C185.237 28.9706 183.39 27.809 180.781 27.809C178.324 27.809 176.325 28.9706 175.658 31.3126H185.542Z" fill="#373F51"/>
    <path d="M199.084 37.1763C199.98 37.1763 200.797 37.3802 201.535 37.788C202.274 38.1959 202.847 38.7527 203.256 39.4586C203.68 40.1645 203.892 40.9567 203.892 41.8351C203.892 42.7449 203.68 43.5684 203.256 44.3057C202.847 45.0429 202.274 45.6233 201.535 46.0469C200.797 46.4547 199.98 46.6586 199.084 46.6586C198.189 46.6586 197.372 46.4547 196.633 46.0469C195.91 45.6233 195.337 45.0429 194.913 44.3057C194.504 43.5684 194.3 42.7449 194.3 41.8351C194.3 40.9567 194.504 40.1645 194.913 39.4586C195.337 38.7527 195.91 38.1959 196.633 37.788C197.372 37.3802 198.189 37.1763 199.084 37.1763ZM199.084 45.2704C200.058 45.2704 200.868 44.9488 201.512 44.3057C202.156 43.6469 202.478 42.8233 202.478 41.8351C202.478 41.2233 202.329 40.6665 202.03 40.1645C201.732 39.6625 201.323 39.2704 200.805 38.988C200.286 38.69 199.713 38.541 199.084 38.541C198.456 38.541 197.882 38.69 197.364 38.988C196.845 39.2704 196.437 39.6625 196.138 40.1645C195.856 40.6665 195.714 41.2233 195.714 41.8351C195.714 42.839 196.028 43.6625 196.657 44.3057C197.301 44.9488 198.11 45.2704 199.084 45.2704ZM200.758 41.0821C200.758 41.5998 200.569 41.9684 200.192 42.188C200.129 42.2037 200.113 42.2508 200.145 42.3292L200.64 43.7174C200.655 43.7488 200.663 43.788 200.663 43.8351C200.663 43.9763 200.577 44.0469 200.404 44.0469H199.815C199.658 44.0469 199.556 43.9684 199.508 43.8116L199.061 42.4939C199.029 42.4312 198.99 42.3998 198.943 42.3998H198.896C198.817 42.3998 198.778 42.439 198.778 42.5174V43.7645C198.778 43.8429 198.746 43.9135 198.684 43.9763C198.636 44.0233 198.574 44.0469 198.495 44.0469H197.977C197.898 44.0469 197.827 44.0233 197.764 43.9763C197.717 43.9135 197.694 43.8429 197.694 43.7645V39.9763C197.694 39.8978 197.717 39.8351 197.764 39.788C197.827 39.7253 197.898 39.6939 197.977 39.6939H199.367C199.776 39.6939 200.106 39.8272 200.357 40.0939C200.624 40.3606 200.758 40.69 200.758 41.0821ZM198.896 40.6351C198.817 40.6351 198.778 40.6743 198.778 40.7527V41.4586C198.778 41.5371 198.817 41.5763 198.896 41.5763H199.202C199.343 41.5763 199.453 41.5292 199.532 41.4351C199.626 41.341 199.673 41.2312 199.673 41.1057C199.673 40.9645 199.626 40.8547 199.532 40.7763C199.453 40.6821 199.343 40.6351 199.202 40.6351H198.896Z" fill="#373F51"/>
    <defs>
        <linearGradient id="paint0_linear" x1="23.7222" y1="0.941162" x2="23.7222" y2="65.647" gradientUnits="userSpaceOnUse">
            <stop stop-color="#007AFF"/>
            <stop offset="1" stop-color="#3F51B5"/>
        </linearGradient>
    </defs>
</svg>
