<svg width="62" height="62" viewBox="0 0 62 62" fill="none" xmlns="http://www.w3.org/2000/svg">
<path d="M27.5699 59H24.6299L17.9729 48.941V59H15.0329V44.321H17.9729L24.6299 54.401V44.321H27.5699V59ZM39.1063 44.342V46.715H32.9953V50.474H37.6783V52.805H32.9953V59H30.0553V44.342H39.1063ZM50.746 44.342V46.715H46.84V59H43.9V46.715H39.994V44.342H50.746Z" fill="url(#paint0_linear_27:485)"/>
<path d="M37.3858 28.2532C37.3858 28.2532 44.9342 25.5781 44.9342 18.3822C44.9342 11.1864 36.5413 8.92015 36.5413 8.92015V1H30.8248V8.56967H25.2642V1H19.5476V8.56967H14V13.7096H19.5346V44.5H25.3292V28.7438L30.8897 28.8373L39.6465 37.9606L47 37.9139L37.3858 28.2532ZM25.2642 23.7207V13.5811H34.6185C34.6185 13.5811 39.0229 14.2469 39.4255 18.4406C39.7114 21.4312 36.5933 23.7207 34.9303 23.7207C32.9035 23.7207 25.2642 23.7207 25.2642 23.7207Z" fill="url(#paint1_linear_27111)"/>
<defs>
<linearGradient id="paint0_linear_27111" x1="31" y1="44" x2="31" y2="59" gradientUnits="userSpaceOnUse">
<stop offset="0.307292" stop-color="#3C53B9"/>
<stop offset="1" stop-color="#3C53B9" stop-opacity="0.19"/>
</linearGradient>
<linearGradient id="paint1_linear_27111" x1="30.5" y1="1" x2="30.5" y2="44" gradientUnits="userSpaceOnUse">
<stop stop-color="#017AFF"/>
<stop offset="1" stop-color="#3C53B9"/>
</linearGradient>
</defs>
</svg>
