<svg width="26" height="37" viewBox="0 0 26 37" fill="none" xmlns="http://www.w3.org/2000/svg">
    <path
        d="M18.4252 23.1809C18.4252 23.1809 24.3724 20.9055 24.3724 14.7849C24.3724 8.66428 17.7598 6.73668 17.7598 6.73668V0H13.2559V6.43857H8.87482V0H4.37086V6.43857H0V10.8105H4.36063V37H8.926V23.5982L13.3071 23.6777L20.2063 31.4377L26 31.398L18.4252 23.1809ZM8.87482 19.3257V10.7011H16.2449C16.2449 10.7011 19.715 11.2675 20.0322 14.8346C20.2574 17.3782 17.8008 19.3257 16.4905 19.3257C14.8937 19.3257 8.87482 19.3257 8.87482 19.3257Z"
        fill="url(#paint0_linear_553_146)" />
    <defs>
        <linearGradient id="paint0_linear_553_146" x1="13" y1="0" x2="13" y2="36.5747" gradientUnits="userSpaceOnUse">
            <stop stop-color="#017AFF" />
            <stop offset="1" stop-color="#3C53B9" />
        </linearGradient>
    </defs>
</svg>