<svg width="19" height="19" viewBox="0 0 19 19" fill="none" xmlns="http://www.w3.org/2000/svg">
<path d="M8.61859 2.6652C9.76182 2.66415 10.8797 3.00221 11.8308 3.63659C12.7818 4.27098 13.5234 5.1732 13.9616 6.22911C14.3998 7.28502 14.515 8.44719 14.2926 9.56858C14.0702 10.69 13.5202 11.7202 12.7122 12.529C11.9042 13.3377 10.8745 13.8887 9.75327 14.1121C8.63208 14.3355 7.46981 14.2214 6.4135 13.7841C5.35719 13.3469 4.45429 12.6061 3.81903 11.6556C3.18378 10.7052 2.8447 9.5876 2.8447 8.44436C2.85163 6.91468 3.46201 5.44955 4.54317 4.36739C5.62434 3.28524 7.08891 2.67352 8.61859 2.6652ZM8.61859 1.58325C7.26159 1.58325 5.93506 1.98565 4.80676 2.73956C3.67846 3.49347 2.79905 4.56503 2.27975 5.81873C1.76045 7.07243 1.62458 8.45197 1.88931 9.7829C2.15405 11.1138 2.80751 12.3364 3.76705 13.2959C4.7266 14.2554 5.94913 14.9089 7.28005 15.1736C8.61098 15.4384 9.99052 15.3025 11.2442 14.7832C12.4979 14.2639 13.5695 13.3845 14.3234 12.2562C15.0773 11.1279 15.4797 9.80136 15.4797 8.44436C15.4797 6.62468 14.7568 4.87953 13.4701 3.59282C12.1834 2.30612 10.4383 1.58325 8.61859 1.58325Z" fill="#0050FF"/>
<path d="M18.4722 17.5697L14.5825 13.6536L13.8331 14.3977L17.7228 18.3138C17.7717 18.3631 17.8297 18.4022 17.8937 18.4289C17.9577 18.4557 18.0263 18.4696 18.0957 18.4698C18.165 18.4701 18.2337 18.4567 18.2979 18.4303C18.362 18.404 18.4204 18.3653 18.4696 18.3165C18.5188 18.2676 18.5579 18.2095 18.5847 18.1456C18.6114 18.0816 18.6253 18.013 18.6256 17.9436C18.6258 17.8743 18.6124 17.8056 18.5861 17.7414C18.5598 17.6772 18.5211 17.6189 18.4722 17.5697Z" fill="#0050FF"/>
</svg>
