<svg width="40" height="40" viewBox="0 0 40 40" fill="none" xmlns="http://www.w3.org/2000/svg">
    <g clip-path="url(#clip0_53:1003)">
        <path d="M31 12.9285C31 13.7457 30.7451 14.5426 30.2709 15.2081C29.7966 15.8737 29.1266 16.3748 28.3542 16.6416C27.5817 16.9084 26.7453 16.9277 25.9613 16.6967C25.1774 16.4658 24.485 15.9961 23.9806 15.3531L16.724 18.9814C16.9031 19.649 16.9031 20.3519 16.724 21.0195L23.9806 24.6463C24.582 23.8807 25.4463 23.3657 26.4058 23.2012C27.3653 23.0366 28.3518 23.2342 29.1739 23.7556C29.996 24.2771 30.5953 25.0852 30.8554 26.0233C31.1156 26.9614 31.0181 27.9627 30.582 28.8331C30.1458 29.7035 29.402 30.3809 28.4948 30.734C27.5876 31.0871 26.5815 31.0908 25.6717 30.7444C24.7619 30.3979 24.0132 29.7259 23.5707 28.8588C23.1282 27.9917 23.0234 26.9911 23.2767 26.0511L16.02 22.4243C15.5157 23.0675 14.8234 23.5374 14.0394 23.7686C13.2554 23.9997 12.4189 23.9806 11.6463 23.7138C10.8737 23.4471 10.2036 22.946 9.72927 22.2804C9.25493 21.6148 9 20.8178 9 20.0005C9 19.1831 9.25493 18.3862 9.72927 17.7206C10.2036 17.055 10.8737 16.5539 11.6463 16.2871C12.4189 16.0204 13.2554 16.0012 14.0394 16.2324C14.8234 16.4635 15.5157 16.9334 16.02 17.5766L23.2767 13.9467C23.1217 13.3646 23.1025 12.7547 23.2205 12.1641C23.3385 11.5734 23.5905 11.0177 23.9571 10.5398C24.3238 10.0618 24.7952 9.67448 25.3352 9.40753C25.8752 9.14057 26.4692 9.00115 27.0715 9C28.1134 9 29.1127 9.41389 29.8494 10.1506C30.5861 10.8873 31 11.8866 31 12.9285Z" fill="#4594F7"/>
    </g>
    <circle cx="20" cy="20" r="19.5" stroke="#4594F7"/>
    <defs>
        <clipPath id="clip0_53:1003">
            <rect width="22" height="22" fill="white" transform="translate(9 9)"/>
        </clipPath>
    </defs>
</svg>
