<svg
        version="1.1"
        xmlns="http://www.w3.org/2000/svg"
        xmlns:xlink="http://www.w3.org/1999/xlink">
    <defs>
        <g id="chevron-right">
            <path d="M0.705751 2.70575C0.315963 2.31596 0.318089 1.68186 0.706055 1.2939L0.7939 1.20605C1.18386 0.816094 1.81349 0.813481 2.20796 1.20796L7.29199 6.29199C7.683 6.683 7.68647 7.31348 7.29199 7.70796L2.20796 12.792C1.81695 13.183 1.18187 13.1819 0.7939 12.7939L0.706055 12.706C0.316099 12.3161 0.31275 11.6872 0.705751 11.2942L4.99998 6.99997L0.705751 2.70575Z" />
        </g>
        <g id="chevron-down">
            <path d="M12 2L10.59 0.589996L6 5.17L1.41 0.589996L-6.16331e-08 2L6 8L12 2Z" />
        </g>
        <g id="globe">
            <path d="M9.99 0C4.47 0 0 4.48 0 10C0 15.52 4.47 20 9.99 20C15.52 20 20 15.52 20 10C20 4.48 15.52 0 9.99 0ZM16.92 6H13.97C13.65 4.75 13.19 3.55 12.59 2.44C14.43 3.07 15.96 4.35 16.92 6ZM10 2.04C10.83 3.24 11.48 4.57 11.91 6H8.09C8.52 4.57 9.17 3.24 10 2.04ZM2.26 12C2.1 11.36 2 10.69 2 10C2 9.31 2.1 8.64 2.26 8H5.64C5.56 8.66 5.5 9.32 5.5 10C5.5 10.68 5.56 11.34 5.64 12H2.26ZM3.08 14H6.03C6.35 15.25 6.81 16.45 7.41 17.56C5.57 16.93 4.04 15.66 3.08 14ZM6.03 6H3.08C4.04 4.34 5.57 3.07 7.41 2.44C6.81 3.55 6.35 4.75 6.03 6ZM10 17.96C9.17 16.76 8.52 15.43 8.09 14H11.91C11.48 15.43 10.83 16.76 10 17.96ZM12.34 12H7.66C7.57 11.34 7.5 10.68 7.5 10C7.5 9.32 7.57 8.65 7.66 8H12.34C12.43 8.65 12.5 9.32 12.5 10C12.5 10.68 12.43 11.34 12.34 12ZM12.59 17.56C13.19 16.45 13.65 15.25 13.97 14H16.92C15.96 15.65 14.43 16.93 12.59 17.56ZM14.36 12C14.44 11.34 14.5 10.68 14.5 10C14.5 9.32 14.44 8.66 14.36 8H17.74C17.9 8.64 18 9.31 18 10C18 10.69 17.9 11.36 17.74 12H14.36Z" />
        </g>
        <g id="fb">
            <path d="M7.33333 5.06V7.36H11L10.5417 11.5H7.33333V23H2.29167V11.5H0V7.36H2.29167V5.06C2.29167 5.06 1.87917 0.69 5.95833 0H11V3.68H8.70833C8.70833 3.68 7.425 3.634 7.33333 5.06Z" />
        </g>
        <g id="ig">
            <path d="M16.2762 0C18.2238 0 19.9395 0.649193 21.1452 1.90121C22.3508 3.10685 23 4.77621 23 6.72379V16.2762C23 18.2702 22.3508 19.9859 21.0988 21.1915C19.8931 22.3508 18.2238 23 16.2298 23H6.77016C4.86895 23 3.1996 22.3972 1.94758 21.1915C0.649193 19.9395 0 18.2238 0 16.2298V6.72379C0 2.68952 2.68952 0 6.72379 0H16.2762ZM19.6149 19.6613C20.4496 18.873 20.8669 17.7137 20.8669 16.2762H20.9597V6.72379C20.9597 5.37903 20.496 4.21976 19.7077 3.38508C18.873 2.5504 17.7137 2.13306 16.3226 2.13306H6.77016C5.37903 2.13306 4.17339 2.5504 3.38508 3.33871C2.5504 4.17339 2.13306 5.33266 2.13306 6.72379V16.2298C2.13306 17.6673 2.5504 18.8266 3.38508 19.6613C4.21976 20.4496 5.37903 20.8669 6.77016 20.8669H16.2298C17.621 20.8669 18.7802 20.4496 19.6149 19.6613ZM17.6674 6.72382C18.4101 6.72382 19.0121 6.12175 19.0121 5.37906C19.0121 4.63637 18.4101 4.0343 17.6674 4.0343C16.9247 4.0343 16.3226 4.63637 16.3226 5.37906C16.3226 6.12175 16.9247 6.72382 17.6674 6.72382ZM11.4999 5.51819C8.25397 5.51819 5.56445 8.16133 5.56445 11.4537C5.56445 14.746 8.2076 17.3892 11.4999 17.3892C14.7923 17.3892 17.4354 14.6996 17.4354 11.4537C17.4354 8.2077 14.7459 5.51819 11.4999 5.51819ZM11.4999 15.2561C9.41324 15.2561 7.69752 13.5404 7.69752 11.4537C7.69752 9.36698 9.41324 7.65125 11.4999 7.65125C13.5866 7.65125 15.3024 9.36698 15.3024 11.4537C15.3024 13.5404 13.5866 15.2561 11.4999 15.2561Z" />
        </g>
        <g id="tw">
            <path d="M23 2.24892C22.1542 2.63081 21.2447 2.88851 20.2897 3.00412C21.2643 2.4109 22.0122 1.471 22.3647 0.350379C21.4528 0.900271 20.4434 1.29953 19.3682 1.5148C18.5077 0.58259 17.2812 0 15.9241 0C13.3182 0 11.2054 2.14765 11.2054 4.79654C11.2054 5.17241 11.2471 5.53831 11.3276 5.88935C7.4058 5.6896 3.92857 3.78019 1.60126 0.878014C1.19521 1.58618 0.962475 2.40999 0.962475 3.28938C0.962475 4.95339 1.79548 6.4214 3.06162 7.28181C2.28832 7.25656 1.56041 7.04105 0.924377 6.68161C0.923957 6.70154 0.923957 6.72171 0.923957 6.74235C0.923957 9.06588 2.55052 11.0045 4.70938 11.4455C4.31337 11.5548 3.89645 11.6137 3.46603 11.6137C3.16167 11.6137 2.86623 11.5838 2.57807 11.5275C3.17881 13.433 4.92139 14.8199 6.98589 14.8586C5.37095 16.1451 3.33652 16.9119 1.12546 16.9119C0.744768 16.9119 0.369303 16.8889 0 16.8449C2.08864 18.2061 4.56871 19 7.23343 19C15.9131 19 20.659 11.6911 20.659 5.35265C20.659 5.14503 20.6549 4.93764 20.6458 4.7321C21.5675 4.05592 22.3678 3.21108 23 2.24892Z" />
        </g>
        <g id="tg">
            <path d="M22.8102 0.3122C22.5849 0.0314089 22.2113 -0.0727208 21.8791 0.0522348L0.781269 7.8528C0.359775 8.00954 0.0639227 8.38961 0.00899865 8.84473C-0.045399 9.29769 0.14973 9.73719 0.515774 9.99015L3.53151 12.0964C3.82367 12.3006 4.19937 12.3225 4.51224 12.1535L18.5636 3.57394L7.95553 12.5191C7.71618 12.702 7.57317 12.9938 7.57317 13.2993V16.9072C7.57317 17.2794 7.77269 17.6203 8.09381 17.7974C8.41545 17.9744 8.80396 17.9568 9.10946 17.7507L12.4007 15.1746L17.6538 18.7887C17.8512 18.9271 18.0863 19 18.3236 19C18.4038 19 18.4843 18.9916 18.5636 18.9747C18.88 18.9072 19.1599 18.7072 19.3317 18.426L22.877 1.30107C23.0629 0.991017 23.0362 0.594248 22.8102 0.3122Z" />
        </g>
        <g id="re">
            <path d="M12.5 25C19.4036 25 25 19.4036 25 12.5C25 5.59644 19.4036 0 12.5 0C5.59644 0 0 5.59644 0 12.5C0 19.4036 5.59644 25 12.5 25ZM10.1387 13.4322V13.4313L10.6055 13.4322H10.1387ZM14.8059 13.4313V13.4322H15.2726L14.8059 13.4313ZM18.138 10.1653C19.1676 10.1653 20.0049 11.0025 20.0049 12.0321C20.0049 12.7406 19.6072 13.3725 18.9987 13.6824C19.0033 13.7543 19.0061 13.8261 19.0061 13.8989C19.0061 16.4724 16.0743 18.566 12.4722 18.566C8.86923 18.566 5.9383 16.4724 5.9383 13.8989C5.9383 13.814 5.9411 13.73 5.94857 13.6478C5.37732 13.3314 5.00488 12.7144 5.00488 12.0321C5.00488 11.0025 5.84216 10.1653 6.87172 10.1653C7.27775 10.1653 7.65858 10.2913 7.96568 10.519C9.09325 9.74989 10.5867 9.3084 12.1539 9.25426L13.2367 6.71536C13.3263 6.5072 13.5475 6.3924 13.7734 6.44374L16.4364 7.06633C16.6866 6.68456 17.1169 6.43161 17.606 6.43161C18.3779 6.43161 19.0061 7.0598 19.0061 7.83173C19.0061 8.60367 18.3779 9.23186 17.606 9.23186C16.8826 9.23186 16.2927 8.67928 16.2199 7.97453L13.9414 7.44249L13.1583 9.27945C14.6097 9.38867 15.9744 9.8199 17.0161 10.5433C17.3353 10.2997 17.7264 10.1653 18.138 10.1653ZM18.0727 7.83173C18.0727 7.5741 17.8627 7.36502 17.606 7.36502C17.3493 7.36502 17.1393 7.5741 17.1393 7.83173C17.1393 8.08936 17.3493 8.29843 17.606 8.29843C17.8627 8.29843 18.0727 8.08936 18.0727 7.83173ZM10.1387 12.4988C9.62436 12.4988 9.20526 12.9179 9.20526 13.4322C9.20526 13.9475 9.62436 14.3656 10.1387 14.3656C10.653 14.3656 11.0721 13.9475 11.0721 13.4322C11.0721 12.9179 10.653 12.4988 10.1387 12.4988ZM12.4722 17.2275C13.2273 17.2275 13.9834 16.9941 14.6275 16.5284C14.8356 16.3772 14.8832 16.0859 14.732 15.8768C14.5799 15.6668 14.2886 15.622 14.0805 15.7723C13.1181 16.4696 11.8263 16.4677 10.8639 15.7723C10.6558 15.622 10.3636 15.6687 10.2124 15.8768C10.0612 16.085 10.1079 16.3772 10.317 16.5284C10.961 16.9941 11.7171 17.2275 12.4722 17.2275ZM13.8723 13.4322C13.8723 13.9475 14.2905 14.3656 14.8058 14.3656C15.321 14.3656 15.7392 13.9475 15.7392 13.4322C15.7392 12.9179 15.321 12.4988 14.8058 12.4988C14.2905 12.4988 13.8723 12.9179 13.8723 13.4322Z" />
        </g>
        <g id="me">
            <path d="M25 2.80449H23.6205C23.2613 2.80449 22.3214 3.19468 22.3214 3.52686V15.5896C22.3214 15.9226 23.2613 16.1956 23.6205 16.1956H25V18.8738H16.0714V16.1956H17.8575V3.69679H17.5467L13.2487 18.8738H9.92095L5.6785 3.69679H5.35718V16.1956H7.14256V18.8738H0V16.1956H0.990628C1.37953 16.1956 1.78543 15.9226 1.78543 15.5895V3.52686C1.78543 3.19463 1.37958 2.80449 0.990628 2.80449H0V0.125977H9.25655L12.2789 10.8389H12.3602L15.4124 0.125977H25V2.80449Z" />
        </g>
        <g id="vk">
            <path d="M31.8304 16.783C31.7916 16.7003 31.7555 16.6318 31.722 16.577C31.1667 15.5874 30.1057 14.3728 28.5396 12.9329L28.5066 12.9L28.49 12.8837L28.4732 12.8671H28.4564C27.7457 12.1967 27.2956 11.7458 27.1071 11.515C26.7622 11.0753 26.6849 10.6303 26.8735 10.1793C27.0066 9.83858 27.5068 9.11904 28.373 8.01969C28.8285 7.43707 29.1894 6.97012 29.4557 6.61831C31.3775 4.0901 32.2107 2.47454 31.9551 1.771L31.8557 1.60658C31.7891 1.5076 31.6169 1.41705 31.3396 1.33448C31.0616 1.25207 30.7063 1.23844 30.2729 1.29336L25.4747 1.32615C25.397 1.2989 25.286 1.30144 25.1414 1.33448C24.9969 1.3675 24.9247 1.38408 24.9247 1.38408L24.8412 1.42537L24.7749 1.47498C24.7194 1.50777 24.6582 1.56547 24.5915 1.64793C24.5252 1.73011 24.4696 1.82654 24.4253 1.93643C23.903 3.26643 23.3089 4.50301 22.6424 5.64607C22.2314 6.32766 21.854 6.91837 21.5092 7.41853C21.1649 7.91851 20.8762 8.28689 20.6431 8.52302C20.4097 8.75939 20.199 8.94874 20.0099 9.09178C19.8209 9.23488 19.6767 9.29535 19.5768 9.27323C19.4767 9.2511 19.3825 9.22917 19.2933 9.20723C19.1379 9.10824 19.0129 8.97363 18.9187 8.80327C18.8241 8.63292 18.7603 8.4185 18.727 8.16019C18.6939 7.90171 18.6742 7.67937 18.6687 7.49245C18.6634 7.30575 18.6659 7.04167 18.6771 6.70095C18.6886 6.36006 18.6939 6.12942 18.6939 6.00849C18.6939 5.59074 18.7021 5.13736 18.7186 4.64824C18.7354 4.1591 18.7489 3.77156 18.7603 3.48605C18.7717 3.20026 18.777 2.89789 18.777 2.57912C18.777 2.26035 18.7574 2.01036 18.7186 1.82891C18.6803 1.6477 18.6216 1.4718 18.5441 1.30126C18.4662 1.13091 18.3521 0.999129 18.2025 0.905577C18.0526 0.81214 17.8662 0.737992 17.6444 0.6829C17.0556 0.551061 16.3059 0.479743 15.3949 0.468654C13.3292 0.446711 12.0017 0.578723 11.413 0.864518C11.1797 0.985269 10.9687 1.15026 10.7799 1.35896C10.58 1.60087 10.5521 1.73288 10.6964 1.75459C11.363 1.85339 11.8348 2.08976 12.1125 2.46344L12.2126 2.66146C12.2905 2.80434 12.3682 3.05727 12.446 3.41993C12.5237 3.78259 12.5738 4.18377 12.5959 4.62322C12.6513 5.42576 12.6513 6.11274 12.5959 6.6842C12.5402 7.25591 12.4877 7.70097 12.4376 8.01975C12.3875 8.33852 12.3125 8.59682 12.2126 8.79461C12.1125 8.99245 12.046 9.11338 12.0126 9.15727C11.9793 9.20116 11.9515 9.22882 11.9294 9.23968C11.7851 9.29442 11.6349 9.32232 11.4795 9.32232C11.3239 9.32232 11.1352 9.24528 10.913 9.09133C10.691 8.93736 10.4606 8.72589 10.2217 8.45655C9.98285 8.18716 9.71348 7.8107 9.41347 7.32711C9.1137 6.84353 8.80266 6.27199 8.48054 5.61252L8.21402 5.13425C8.04741 4.82656 7.81983 4.37856 7.53102 3.79062C7.24205 3.20246 6.98662 2.63352 6.76457 2.08393C6.67581 1.85311 6.54248 1.67738 6.36477 1.55646L6.28138 1.50684C6.22595 1.46297 6.13696 1.41635 6.01487 1.3667C5.89262 1.31709 5.76506 1.28152 5.63165 1.25963L1.06652 1.29244C0.600017 1.29244 0.283493 1.39701 0.116829 1.60589L0.0501279 1.7047C0.0168065 1.75973 0 1.84763 0 1.96861C0 2.08952 0.0333213 2.23794 0.100022 2.41368C0.766449 3.96363 1.49117 5.45844 2.27419 6.89833C3.05722 8.33823 3.73765 9.4981 4.31508 10.3769C4.89263 11.2564 5.48132 12.0864 6.08116 12.8665C6.68101 13.647 7.07807 14.1471 7.27233 14.3669C7.46683 14.587 7.61961 14.7516 7.73066 14.8615L8.14726 15.2571C8.41384 15.5209 8.80529 15.837 9.32179 16.2052C9.83843 16.5735 10.4104 16.9362 11.0379 17.2936C11.6656 17.6506 12.3958 17.9419 13.2289 18.1673C14.062 18.3927 14.8728 18.4832 15.6614 18.4396H17.5776C17.9661 18.4063 18.2605 18.2854 18.4607 18.0767L18.527 17.9941C18.5715 17.9285 18.6132 17.8265 18.6518 17.6893C18.6907 17.552 18.7101 17.4007 18.7101 17.236C18.6988 16.7634 18.7351 16.3376 18.8182 15.9584C18.9012 15.5793 18.9958 15.2936 19.1017 15.101C19.2076 14.9088 19.327 14.7465 19.4598 14.6149C19.593 14.483 19.6878 14.4032 19.7435 14.3757C19.7989 14.3481 19.8431 14.3293 19.8764 14.3181C20.143 14.2302 20.4567 14.3153 20.818 14.5739C21.179 14.8321 21.5177 15.1511 21.8345 15.5302C22.151 15.9096 22.5313 16.3352 22.9756 16.8077C23.42 17.2805 23.8088 17.6318 24.1418 17.863L24.4749 18.0609C24.6973 18.1928 24.9862 18.3138 25.3417 18.4238C25.6965 18.5336 26.0074 18.5611 26.2744 18.5061L30.5395 18.4402C30.9614 18.4402 31.2896 18.3712 31.5224 18.234C31.7558 18.0966 31.8944 17.9452 31.9391 17.7807C31.9836 17.6159 31.986 17.4288 31.9475 17.2198C31.9081 17.0113 31.8691 16.8654 31.8304 16.783Z" />
        </g>
        <g id="wb">
            <path fill-rule="evenodd" clip-rule="evenodd" d="M22.3586 2.37985C23.1351 3.23665 23.637 4.22967 23.8648 5.35864C24.0924 6.48779 24.0322 7.5656 23.6842 8.59206C23.6038 8.83309 23.452 9.01157 23.2288 9.12759C23.0057 9.2436 22.7737 9.26133 22.5326 9.18119C22.2915 9.10076 22.1131 8.94911 21.9972 8.72599C21.881 8.50282 21.8589 8.27079 21.9301 8.02966C22.1802 7.29779 22.2248 6.53014 22.064 5.72694C21.9033 4.92351 21.5459 4.21851 20.9927 3.61152C20.4393 2.99561 19.7787 2.56954 19.011 2.33301C18.2435 2.09657 17.4713 2.05858 16.6947 2.21915C16.4449 2.27275 16.2127 2.23031 15.9988 2.09197C15.7843 1.95363 15.6506 1.75954 15.5971 1.5096C15.5434 1.25965 15.5858 1.02992 15.7241 0.820025C15.8624 0.610175 16.0566 0.478591 16.3067 0.424991C17.4048 0.192961 18.4934 0.244216 19.5733 0.578991C20.6537 0.913906 21.5819 1.51419 22.3586 2.37985ZM18.0207 9.63598C18.5294 9.79659 18.9894 10.0063 19.3995 10.2653C19.8104 10.5241 20.1676 10.8878 20.4709 11.3568C20.7747 11.8253 20.9262 12.3455 20.9262 12.9167C20.9262 13.5234 20.7609 14.1461 20.4306 14.7842C20.1002 15.4227 19.6139 16.0338 18.9711 16.6184C18.3285 17.2032 17.5765 17.7276 16.7151 18.1916C15.8539 18.6559 14.8452 19.0261 13.6894 19.3029C12.5337 19.5796 11.3265 19.7178 10.068 19.7178C8.80951 19.7178 7.58216 19.5682 6.38613 19.2694C5.19016 18.9704 4.11676 18.555 3.16631 18.0242C2.21564 17.4932 1.45042 16.8194 0.870114 16.0025C0.290085 15.1857 0 14.2953 0 13.3315C0 12.3048 0.310015 11.2117 0.930372 10.0512C1.55068 8.89088 2.43215 7.73945 3.57457 6.59703C5.08314 5.08845 6.60715 4.03531 8.14653 3.43714C9.68633 2.8391 10.7864 2.87033 11.4468 3.53078C12.027 4.10214 12.1161 5.03476 11.7147 6.32903C11.679 6.454 11.6744 6.54324 11.7012 6.59684C11.728 6.65044 11.7727 6.68167 11.835 6.69049C11.8974 6.69935 11.9622 6.69724 12.0293 6.68373C12.0961 6.67023 12.1565 6.6548 12.2097 6.63693L12.2902 6.61011C13.5307 6.08359 14.6286 5.82018 15.5836 5.82018C16.5389 5.82018 17.2214 6.0925 17.6322 6.63693C18.0336 7.19924 18.0336 7.99362 17.6322 9.02003C17.6144 9.13604 17.5945 9.22523 17.572 9.2877C17.5494 9.35011 17.5696 9.40596 17.6322 9.45515C17.6945 9.5043 17.7483 9.53769 17.7929 9.55555C17.8375 9.57347 17.9135 9.6001 18.0207 9.63598ZM10.0816 18.299C12.072 18.0937 13.721 17.4623 15.0286 16.4047C16.3362 15.3467 16.9272 14.1663 16.8024 12.863C16.7221 12.0062 16.3251 11.2475 15.611 10.5868C14.8969 9.92634 13.9661 9.43991 12.8193 9.12755C11.6727 8.81515 10.4477 8.72127 9.14447 8.84638C7.15411 9.05163 5.50505 9.68306 4.19746 10.741C2.88988 11.7987 2.29845 12.979 2.42352 14.2821C2.50385 15.139 2.90104 15.8977 3.61509 16.5585C4.32905 17.219 5.25965 17.7052 6.40653 18.0179C7.55337 18.3303 8.77847 18.424 10.0816 18.299ZM7.65155 11.1094C8.58427 10.6989 9.52374 10.6138 10.4698 10.8549C11.4604 11.1137 12.1676 11.647 12.5918 12.4545C13.0158 13.2624 13.0269 14.1124 12.6255 15.0052C12.2235 15.9154 11.5185 16.5849 10.5099 17.0133C9.50142 17.442 8.5016 17.4954 7.51092 17.1743C6.55584 16.8706 5.89768 16.3061 5.53613 15.4805C5.17458 14.6549 5.2037 13.8179 5.62322 12.9703C6.04277 12.14 6.71875 11.5199 7.65155 11.1094ZM8.20021 15.8286C8.5619 15.7082 8.84078 15.496 9.03717 15.1927C9.2246 14.8891 9.27361 14.5813 9.18441 14.269C9.09517 13.9567 8.89419 13.7334 8.58178 13.5997C8.27829 13.4746 7.95256 13.4703 7.60433 13.5863C7.25629 13.7022 6.98843 13.9073 6.80109 14.2021C6.60475 14.5057 6.54674 14.8112 6.62711 15.1189C6.70744 15.427 6.89933 15.6523 7.20273 15.7952C7.50604 15.938 7.83875 15.9492 8.20021 15.8286ZM10.0011 13.8203C10.1349 13.7712 10.2331 13.6886 10.2956 13.5724C10.367 13.4567 10.3825 13.3381 10.3424 13.2178C10.3021 13.0973 10.224 13.0145 10.108 12.9701C9.98301 12.9255 9.85584 12.9276 9.72651 12.9767C9.59717 13.026 9.50123 13.1084 9.43876 13.2246C9.28711 13.5013 9.34512 13.7019 9.61279 13.827C9.73767 13.8715 9.86719 13.8694 10.0011 13.8203ZM19.1319 7.70174C19.2304 7.89367 19.3819 8.02526 19.5873 8.09672C19.7927 8.15919 19.9911 8.14141 20.183 8.04312C20.3749 7.94507 20.5067 7.79332 20.5781 7.58793C20.7475 7.08822 20.7768 6.56367 20.6648 6.01487C20.5534 5.46603 20.3102 4.98171 19.9356 4.56219C19.5607 4.14263 19.1096 3.8503 18.5832 3.68509C18.0565 3.51998 17.5255 3.4955 16.9901 3.61151C16.7756 3.6562 16.6106 3.77006 16.4944 3.953C16.3785 4.13588 16.343 4.33452 16.3877 4.54869C16.4234 4.76295 16.5347 4.92806 16.722 5.04408C16.9096 5.16009 17.1104 5.19578 17.3248 5.15127C17.8873 5.03521 18.3644 5.19146 18.7574 5.61984C19.1502 6.04817 19.2571 6.54355 19.0787 7.10595C19.0157 7.3112 19.0338 7.50985 19.1319 7.70174Z" />
        </g>
    </defs>
</svg>
