<svg width="40" height="40" viewBox="0 0 40 40" fill="none" xmlns="http://www.w3.org/2000/svg">
<path d="M9 12.1704V27.83H31V12.1704H9ZM29.6392 13.5312V17.7617H28.0303C28.1184 17.527 28.1634 17.2784 28.1633 17.0277C28.1633 15.8718 27.2229 14.9314 26.067 14.9314C25.544 14.9314 25.0415 15.1266 24.652 15.481L22.4948 17.5084L20.3457 15.4885L20.3377 15.4811C19.9482 15.1267 19.4457 14.9315 18.9227 14.9315C17.7668 14.9315 16.8264 15.8719 16.8264 17.0277C16.8263 17.2784 16.8713 17.5271 16.9594 17.7618H10.3608V13.5312H29.6392ZM26.0454 17.7617L25.6845 17.755L25.6799 17.7617H24.2123L25.5712 16.4845C25.7091 16.3605 25.885 16.2923 26.067 16.2923C26.4725 16.2923 26.8024 16.6222 26.8024 17.0277C26.8024 17.422 26.4905 17.7441 26.1004 17.7618H26.0454V17.7617ZM19.3052 17.755L18.9443 17.7617H18.8893C18.4994 17.7441 18.1872 17.422 18.1872 17.0277C18.1872 16.6222 18.5172 16.2923 18.9227 16.2923C19.1047 16.2923 19.2806 16.3605 19.4185 16.4845L20.7774 17.7617H19.3097L19.3052 17.755ZM10.3608 26.4691V19.1225H18.866C18.8849 19.123 18.9037 19.124 18.9227 19.124C18.935 19.124 18.9474 19.1231 18.9597 19.1225H19.0754C19.0844 19.1225 19.0941 19.1229 19.1029 19.1229L19.5049 19.123L20.4536 19.1228V22.1891H21.8144V19.1225H23.1752V24.0036H24.536V19.1228L25.4847 19.123L25.8867 19.1229C25.9091 19.1229 25.932 19.1229 25.9553 19.1226H26.03C26.0422 19.1231 26.0545 19.124 26.0669 19.124C26.0859 19.124 26.1048 19.1231 26.1237 19.1226H29.6392V26.4692H10.3608V26.4691Z" fill="#373F51" fill-opacity="0.5"/>
<circle cx="20" cy="20" r="19.5" stroke="#373F51" stroke-opacity="0.5"/>
</svg>
