<svg width="20" height="20" viewBox="0 0 20 20" fill="none" xmlns="http://www.w3.org/2000/svg">
    <g clip-path="url(#clip0_53:967)">
        <path d="M9.9999 -0.0212555C4.47428 -0.0212555 -0.0219727 4.47374 -0.0219727 9.99999C-0.0219727 15.5262 4.47428 20.0212 9.9999 20.0212C15.5255 20.0212 20.0218 15.5262 20.0218 9.99999C20.0218 4.47374 15.5255 -0.0212555 9.9999 -0.0212555ZM9.9999 19.3537C4.8424 19.3537 0.646777 15.1575 0.646777 9.99999C0.646777 4.84249 4.8424 0.646245 9.9999 0.646245C15.1574 0.646245 19.353 4.84249 19.353 9.99999C19.353 15.1575 15.1574 19.3537 9.9999 19.3537Z" fill="#4594F7"/>
        <path d="M15.4962 6.90374C15.5655 6.77542 15.6226 6.64087 15.6668 6.50187C15.6873 6.43739 15.6877 6.36823 15.668 6.30351C15.6483 6.2388 15.6095 6.18157 15.5566 6.13939C15.5037 6.09721 15.4393 6.07206 15.3718 6.06725C15.3043 6.06245 15.237 6.07823 15.1787 6.11249C14.8584 6.30275 14.5117 6.4445 14.1499 6.53312C13.7107 6.13673 13.1403 5.91698 12.5487 5.91624C12.2273 5.91649 11.9092 5.98164 11.6136 6.10778C11.3179 6.23393 11.0508 6.41847 10.8282 6.65034C10.6056 6.88222 10.4321 7.15665 10.3181 7.4572C10.2042 7.75774 10.1521 8.0782 10.1649 8.39937C8.75932 8.22242 7.47577 7.51115 6.58056 6.41312C6.54626 6.37152 6.50243 6.33882 6.45278 6.31778C6.40314 6.29675 6.34915 6.28801 6.29541 6.2923C6.24166 6.2966 6.18975 6.3138 6.14408 6.34245C6.0984 6.3711 6.06032 6.41035 6.03306 6.45687C5.82807 6.8087 5.71666 7.20718 5.70944 7.61431C5.70221 8.02143 5.79943 8.42362 5.99181 8.78249C5.94463 8.79046 5.8993 8.80698 5.85806 8.83124C5.80753 8.86347 5.76592 8.9079 5.73708 8.96044C5.70825 9.01298 5.69311 9.07194 5.69306 9.13187C5.69306 9.84124 6.00869 10.4925 6.51744 10.935L6.49556 10.9569C6.45715 11.0003 6.43073 11.053 6.41889 11.1098C6.40705 11.1666 6.41021 11.2254 6.42806 11.2806C6.53415 11.6116 6.71128 11.9153 6.94706 12.1707C7.18285 12.426 7.47158 12.6267 7.79306 12.7587C7.1328 13.0808 6.39391 13.2064 5.66431 13.1206C5.58931 13.113 5.5139 13.1304 5.44988 13.1702C5.38587 13.21 5.33687 13.27 5.31056 13.3406C5.2853 13.4118 5.28482 13.4894 5.30921 13.5609C5.33361 13.6324 5.38143 13.6935 5.44493 13.7344C6.43682 14.371 7.59072 14.7092 8.76931 14.7087C12.6318 14.7087 14.9406 11.5712 14.9406 8.53812L14.9399 8.43562C15.3143 8.14338 15.6394 7.79312 15.9031 7.39812C15.943 7.33841 15.9626 7.26742 15.9591 7.19568C15.9555 7.12394 15.9289 7.05525 15.8833 6.99979C15.8376 6.94433 15.7753 6.90504 15.7056 6.88774C15.6359 6.87044 15.5625 6.87605 15.4962 6.90374ZM14.4056 8.00062C14.3602 8.03323 14.3237 8.07669 14.2995 8.12702C14.2753 8.17735 14.264 8.23295 14.2668 8.28874C14.2706 8.37124 14.2724 8.45499 14.2724 8.53749C14.2724 11.2425 12.2143 14.0406 8.76993 14.0406C8.15562 14.0409 7.54565 13.9378 6.96556 13.7356C7.66031 13.6025 8.31296 13.3046 8.86869 12.8669C8.92278 12.8242 8.96238 12.7659 8.98208 12.6999C9.00177 12.6339 9.00059 12.5634 8.9787 12.4981C8.95682 12.4327 8.91529 12.3758 8.8598 12.335C8.80431 12.2941 8.73756 12.2714 8.66869 12.27C8.3992 12.2648 8.1347 12.1964 7.89651 12.0703C7.65832 11.9441 7.45311 11.7638 7.29743 11.5437C7.45556 11.5331 7.61056 11.5069 7.76119 11.4662C7.83408 11.4467 7.89822 11.4031 7.94313 11.3424C7.98803 11.2818 8.01106 11.2077 8.00845 11.1323C8.00584 11.0569 7.97774 10.9846 7.92875 10.9272C7.87976 10.8698 7.81276 10.8307 7.73869 10.8162C7.43432 10.7543 7.15252 10.6108 6.92343 10.4011C6.69433 10.1914 6.52656 9.92334 6.43806 9.62562C6.60431 9.66749 6.77494 9.69187 6.94556 9.69749C7.09244 9.69687 7.22869 9.60687 7.27431 9.46562C7.31994 9.32437 7.26619 9.16874 7.14181 9.08624C6.84773 8.89031 6.6213 8.60838 6.49344 8.27894C6.36558 7.94951 6.34253 7.58864 6.42744 7.24562C7.51308 8.35957 8.97903 9.0229 10.5324 9.10312C10.6424 9.10374 10.7387 9.06437 10.8056 8.98374C10.8724 8.90312 10.8981 8.79624 10.8743 8.69374C10.7888 8.32562 10.8271 7.93958 10.9831 7.59538C11.1391 7.25117 11.4043 6.96799 11.7374 6.78965C12.0706 6.61131 12.4533 6.54776 12.8263 6.60883C13.1992 6.6699 13.5417 6.8522 13.8006 7.12749C13.8394 7.1689 13.8881 7.19974 13.9421 7.21712C13.9961 7.23451 14.0536 7.23786 14.1093 7.22687C14.2124 7.20624 14.3143 7.18249 14.4149 7.15499C14.3696 7.18895 14.3224 7.22046 14.2737 7.24937C14.2089 7.28907 14.1595 7.34967 14.1338 7.42117C14.108 7.49268 14.1074 7.57082 14.132 7.64274C14.1566 7.71465 14.2049 7.77603 14.2691 7.81678C14.3333 7.85752 14.4094 7.87519 14.4849 7.86687L14.5987 7.85249C14.536 7.90409 14.4716 7.9535 14.4056 8.00062Z" fill="#4594F7"/>
    </g>
    <defs>
        <clipPath id="clip0_53:967">
            <rect width="20" height="20" fill="white"/>
        </clipPath>
    </defs>
</svg>
