<svg width="23" height="23" viewBox="0 0 23 23" fill="none" xmlns="http://www.w3.org/2000/svg">
    <path d="M11.5 14.375C13.0878 14.375 14.375 13.0878 14.375 11.5C14.375 9.91218 13.0878 8.625 11.5 8.625C9.91218 8.625 8.625 9.91218 8.625 11.5C8.625 13.0878 9.91218 14.375 11.5 14.375Z" fill="#373F51" fill-opacity="0.4"/>
    <path d="M22.2381 11.2556C21.3927 9.06893 19.9251 7.17788 18.0167 5.81619C16.1083 4.45449 13.8427 3.68185 11.4999 3.59375C9.15718 3.68185 6.89159 4.45449 4.98318 5.81619C3.07476 7.17788 1.60718 9.06893 0.761813 11.2556C0.704721 11.4135 0.704721 11.5865 0.761813 11.7444C1.60718 13.9311 3.07476 15.8221 4.98318 17.1838C6.89159 18.5455 9.15718 19.3182 11.4999 19.4062C13.8427 19.3182 16.1083 18.5455 18.0167 17.1838C19.9251 15.8221 21.3927 13.9311 22.2381 11.7444C22.2952 11.5865 22.2952 11.4135 22.2381 11.2556ZM11.4999 16.1719C10.5759 16.1719 9.67267 15.8979 8.90438 15.3845C8.1361 14.8712 7.53729 14.1415 7.18369 13.2878C6.83009 12.4342 6.73757 11.4948 6.91783 10.5886C7.0981 9.68231 7.54305 8.84986 8.19642 8.19649C8.8498 7.54311 9.68225 7.09816 10.5885 6.91789C11.4948 6.73763 12.4341 6.83015 13.2878 7.18375C14.1415 7.53735 14.8711 8.13616 15.3845 8.90445C15.8978 9.67273 16.1718 10.576 16.1718 11.5C16.1699 12.7385 15.6771 13.9257 14.8014 14.8014C13.9256 15.6771 12.7384 16.17 11.4999 16.1719Z" fill="#373F51" fill-opacity="0.4"/>
</svg>
