<svg width="19" height="19" viewBox="0 0 19 19" fill="none" xmlns="http://www.w3.org/2000/svg">
    <path d="M17.3849 7.38889H16.361V4.75C16.361 4.61003 16.3054 4.47578 16.2064 4.37681C16.1075 4.27783 15.9732 4.22222 15.8333 4.22222H3.16659C3.02661 4.22222 2.89237 4.16662 2.79339 4.06764C2.69441 3.96866 2.63881 3.83442 2.63881 3.69445C2.63881 3.55447 2.69441 3.42023 2.79339 3.32125C2.89237 3.22227 3.02661 3.16667 3.16659 3.16667H15.6221C15.7621 3.16667 15.8964 3.11106 15.9953 3.01209C16.0943 2.91311 16.1499 2.77887 16.1499 2.63889C16.1499 2.49891 16.0943 2.36467 15.9953 2.26569C15.8964 2.16672 15.7621 2.11111 15.6221 2.11111H3.16659C2.96281 2.10691 2.7602 2.1429 2.57033 2.21702C2.38046 2.29114 2.20706 2.40194 2.06002 2.5431C1.91299 2.68425 1.7952 2.85299 1.7134 3.03967C1.63159 3.22636 1.58737 3.42733 1.58325 3.63111V14.7144C1.58394 15.0011 1.64118 15.2849 1.75169 15.5494C1.86221 15.8139 2.02382 16.0541 2.22727 16.2561C2.43073 16.4581 2.67203 16.6179 2.93736 16.7265C3.20269 16.8351 3.48684 16.8903 3.77353 16.8889H15.8333C15.9732 16.8889 16.1075 16.8333 16.2064 16.7343C16.3054 16.6353 16.361 16.5011 16.361 16.3611V13.7222H17.3849C17.4515 13.7273 17.5185 13.7187 17.5817 13.6969C17.6448 13.6752 17.7029 13.6408 17.7523 13.5958C17.8017 13.5508 17.8414 13.4963 17.869 13.4354C17.8966 13.3746 17.9115 13.3087 17.9127 13.2419V7.96417C17.9144 7.81913 17.8608 7.67888 17.7628 7.57199C17.6647 7.4651 17.5296 7.39962 17.3849 7.38889ZM16.8888 12.6667H12.3605C11.8196 12.6474 11.3085 12.4143 10.9394 12.0184C10.5703 11.6226 10.3733 11.0965 10.3919 10.5556C10.3733 10.0147 10.5703 9.48851 10.9394 9.09268C11.3085 8.69685 11.8196 8.46371 12.3605 8.44445H16.8888V12.6667Z" fill="white"/>
    <path d="M12.6877 11.305C13.1249 11.305 13.4793 10.9506 13.4793 10.5133C13.4793 10.0761 13.1249 9.72166 12.6877 9.72166C12.2504 9.72166 11.896 10.0761 11.896 10.5133C11.896 10.9506 12.2504 11.305 12.6877 11.305Z" fill="white"/>
</svg>
